<svg width="21" height="22" viewBox="0 0 21 22" fill="none" xmlns="http://www.w3.org/2000/svg">
<path fill-rule="evenodd" clip-rule="evenodd" d="M10.5 1C10.1104 1 9.73668 1.15051 9.46116 1.41842C9.18564 1.68633 9.03086 2.0497 9.03086 2.42858V2.57144C7.37191 2.90127 5.881 3.77806 4.81022 5.05355C3.73944 6.32904 3.15449 7.92497 3.15429 9.57148V15.2858L1.38397 17.183C0.527458 18.1015 1.19739 19.5715 2.47113 19.5715H7.95544C8.21334 20.0059 8.58426 20.3665 9.03092 20.6172C9.47758 20.868 9.98425 21 10.5 21C11.0158 21 11.5224 20.868 11.9691 20.6172C12.4157 20.3665 12.7867 20.0059 13.0446 19.5715H18.5289C19.8026 19.5715 20.4725 18.1001 19.616 17.183L17.8457 15.2858V9.57148C17.8455 7.92497 17.2606 6.32904 16.1898 5.05355C15.119 3.77806 13.6281 2.90127 11.9691 2.57144V2.42858C11.9691 2.0497 11.8144 1.68633 11.5388 1.41842C11.2633 1.15051 10.8896 1 10.5 1ZM5.358 16.1144L4.78503 16.7258L4.1298 17.4287H16.8702L16.2135 16.7258L15.642 16.113V9.57148C15.642 8.91487 15.509 8.26468 15.2506 7.65805C14.9922 7.05142 14.6134 6.50022 14.1359 6.03593C13.6585 5.57163 13.0916 5.20333 12.4678 4.95206C11.8439 4.70078 11.1753 4.57145 10.5 4.57145C9.82474 4.57145 9.1561 4.70078 8.53224 4.95206C7.90839 5.20333 7.34154 5.57163 6.86406 6.03593C6.38658 6.50022 6.00782 7.05142 5.74941 7.65805C5.491 8.26468 5.358 8.91487 5.358 9.57148V16.1144Z" fill="#0B0B0B" stroke="#FEF9DB" stroke-width="0.5" stroke-linejoin="round"/>
</svg>
