<svg width="47" height="47" viewBox="0 0 47 47" fill="none" xmlns="http://www.w3.org/2000/svg">
<path fill-rule="evenodd" clip-rule="evenodd" d="M46.4784 23.2392C46.4784 36.0738 36.0738 46.4784 23.2392 46.4784C10.4045 46.4784 0 36.0738 0 23.2392C0 10.4045 10.4045 0 23.2392 0C36.0738 0 46.4784 10.4045 46.4784 23.2392ZM28.6481 14.5899C31.8174 15.6821 34.1369 17.319 33.6809 20.3634C33.3512 22.5929 32.1166 23.672 30.4753 24.0497C32.7281 25.2218 33.8741 27.0214 32.7818 30.1384C31.4267 34.0106 28.208 34.3374 23.9262 33.5269L22.8877 37.6896L20.3779 37.0651L21.4033 32.9576C20.7526 32.7949 20.0874 32.6235 19.4018 32.439L18.3735 36.564L15.8651 35.9394L16.9036 31.768C16.6567 31.7049 16.4079 31.64 16.1573 31.5745C15.8138 31.4849 15.4667 31.3943 15.1157 31.3061L11.8477 30.4913L13.0939 27.6184C13.0939 27.6184 14.9443 28.1093 14.9181 28.073C15.6298 28.2487 15.945 27.7854 16.0699 27.4775L17.7112 20.895L17.977 20.9603C17.8753 20.9211 17.7853 20.895 17.7156 20.8775L18.8862 16.1789C18.9167 15.6444 18.7337 14.9719 17.717 14.7177C17.7562 14.6916 15.8927 14.2645 15.8927 14.2645L16.5609 11.5833L20.0235 12.4475L20.0206 12.4606C20.5057 12.5825 21.006 12.6969 21.5143 12.8131C21.5509 12.8215 21.5875 12.8298 21.6241 12.8382L22.6524 8.71472L25.1623 9.34073L24.1528 13.3829L24.1948 13.3925C24.8563 13.5432 25.5187 13.6942 26.1645 13.8564L27.1666 9.84037L29.6765 10.4649L28.6481 14.5899ZM20.707 29.5438C22.7563 30.0851 27.2335 31.2677 27.9437 28.407C28.6738 25.4842 24.3353 24.5095 22.2156 24.0333C21.9779 23.9799 21.7681 23.9328 21.5965 23.8899L20.2167 29.4165C20.3574 29.4514 20.5223 29.495 20.707 29.5438ZM22.6412 21.4679C24.3489 21.9238 28.0725 22.918 28.7208 20.3183C29.3839 17.6594 25.7641 16.8587 23.996 16.4675C23.7967 16.4234 23.6209 16.3846 23.4774 16.3488L22.2283 21.3597C22.3466 21.3892 22.4856 21.4263 22.6412 21.4679Z" fill="#00CE08"/>
</svg>
