<svg width="47" height="47" viewBox="0 0 47 47" fill="none" xmlns="http://www.w3.org/2000/svg">
<path d="M23.2392 46.4784C36.0738 46.4784 46.4784 36.0738 46.4784 23.2392C46.4784 10.4045 36.0738 0 23.2392 0C10.4045 0 0 10.4045 0 23.2392C0 36.0738 10.4045 46.4784 23.2392 46.4784Z" fill="#627EEA"/>
<path d="M23.9625 5.80988V18.6931L34.8515 23.5588L23.9625 5.80988Z" fill="white" fill-opacity="0.602"/>
<path d="M23.9625 5.80985L13.0721 23.5588L23.9625 18.6931V5.80985Z" fill="white"/>
<path d="M23.9625 31.9075V40.6614L34.8588 25.5865L23.9625 31.9075Z" fill="white" fill-opacity="0.602"/>
<path d="M23.9625 40.6614V31.9061L13.0721 25.5865L23.9625 40.6614Z" fill="white"/>
<path d="M23.9625 29.8813L34.8515 23.5588L23.9625 18.696V29.8813Z" fill="white" fill-opacity="0.2"/>
<path d="M13.0721 23.5588L23.9625 29.8813V18.696L13.0721 23.5588Z" fill="white" fill-opacity="0.602"/>
</svg>
