<svg width="47" height="47" viewBox="0 0 47 47" fill="none" xmlns="http://www.w3.org/2000/svg">
<path d="M23.2402 46.9152C36.0754 46.9152 46.4804 36.5102 46.4804 23.675C46.4804 10.8398 36.0754 0.434814 23.2402 0.434814C10.405 0.434814 0 10.8398 0 23.675C0 36.5102 10.405 46.9152 23.2402 46.9152Z" fill="#23292F"/>
<path d="M33.5094 12.0548H37.7072L28.9703 20.7075C27.4428 22.2124 25.3845 23.0561 23.2402 23.0561C21.0958 23.0561 19.0375 22.2124 17.51 20.7075L8.76588 12.0548H12.9709L19.6089 18.6246C20.5755 19.5787 21.8791 20.1136 23.2373 20.1136C24.5955 20.1136 25.899 19.5787 26.8656 18.6246L33.5094 12.0548ZM12.9201 36.1128H8.71504L17.51 27.4079C19.0375 25.9029 21.0958 25.0593 23.2402 25.0593C25.3845 25.0593 27.4428 25.9029 28.9703 27.4079L37.7653 36.1114H33.5603L26.8715 29.485C25.9048 28.5309 24.6013 27.9959 23.2431 27.9959C21.8849 27.9959 20.5813 28.5309 19.6147 29.485L12.9186 36.1128H12.9201Z" fill="white"/>
</svg>
