<svg width="65" height="18" viewBox="0 0 65 18" fill="none" xmlns="http://www.w3.org/2000/svg">
<path d="M1 0.478271L1.7 3.22584C2.4 5.9734 3.8 11.4685 5.2 11.2159C6.6 10.9633 8 4.96285 9.4 3.787C10.8 2.61115 12.2 6.25986 13.6 7.48835C15 8.71685 16.4 7.52513 17.8 8.2526C19.2 8.98008 20.6 11.6268 22 11.0602C23.4 10.4937 24.8 6.71388 26.2 6.82882C27.6 6.94376 29 10.9534 30.4 13.5926C31.8 16.2317 33.2 17.5003 34.6 15.4896C36 13.479 37.4 8.18902 38.8 7.1872C40.2 6.18539 41.6 9.47169 43 10.2205C44.4 10.9694 45.8 9.18077 47.2 9.56063C48.6 9.94049 50 12.4888 51.4 13.0289C52.8 13.569 54.2 12.1008 55.6 12.2521C57 12.4035 58.4 14.1745 59.8 13.1715C61.2 12.1685 62.6 8.39157 63.3 6.50311L64 4.61465" stroke="#00CE08" stroke-width="1.5"/>
</svg>
