<svg width="47" height="48" viewBox="0 0 47 48" fill="none" xmlns="http://www.w3.org/2000/svg">
<path d="M23.2402 47.3957C36.0754 47.3957 46.4804 36.9907 46.4804 24.1555C46.4804 11.3203 36.0754 0.915283 23.2402 0.915283C10.405 0.915283 0 11.3203 0 24.1555C0 36.9907 10.405 47.3957 23.2402 47.3957Z" fill="#66F9A1"/>
<path d="M14.4162 29.5109C14.5768 29.3525 14.7934 29.2638 15.019 29.264H35.8858C35.97 29.2629 36.0525 29.2869 36.1228 29.3331C36.1931 29.3793 36.248 29.4456 36.2804 29.5232C36.3127 29.6009 36.3211 29.6865 36.3043 29.7689C36.2876 29.8514 36.2466 29.927 36.1865 29.9859L32.0643 34.0747C31.9039 34.2337 31.6873 34.3229 31.4615 34.3231H10.5947C10.5105 34.3238 10.4281 34.2994 10.358 34.253C10.2878 34.2066 10.233 34.1403 10.2008 34.0627C10.1685 33.985 10.1601 33.8994 10.1767 33.817C10.1933 33.7345 10.2342 33.6589 10.294 33.5997L14.4162 29.5109ZM14.4162 14.2348C14.5768 14.0764 14.7934 13.9877 15.019 13.9879H35.8858C36.2649 13.9879 36.4552 14.444 36.1865 14.7113L32.0643 18.8001C31.9037 18.9585 31.6871 19.0473 31.4615 19.047H10.5947C10.5108 19.0474 10.4288 19.0229 10.3589 18.9766C10.2891 18.9303 10.2346 18.8642 10.2023 18.7869C10.1701 18.7095 10.1616 18.6243 10.1779 18.542C10.1943 18.4598 10.2347 18.3843 10.294 18.3251L14.4162 14.2348ZM32.0643 21.8242C31.9037 21.6658 31.6871 21.5771 31.4615 21.5773H10.5947C10.5105 21.5766 10.4281 21.601 10.358 21.6474C10.2878 21.6938 10.233 21.76 10.2008 21.8377C10.1685 21.9154 10.1601 22.001 10.1767 22.0834C10.1933 22.1659 10.2342 22.2415 10.294 22.3006L14.4162 26.3895C14.576 26.5478 14.7939 26.6364 15.019 26.6364H35.8858C35.9699 26.6371 36.0524 26.6127 36.1225 26.5663C36.1927 26.5199 36.2474 26.4536 36.2797 26.376C36.312 26.2983 36.3204 26.2127 36.3038 26.1303C36.2872 26.0478 36.2463 25.9722 36.1865 25.913L32.0643 21.8242Z" fill="white"/>
</svg>
