<svg width="65" height="26" viewBox="0 0 65 26" fill="none" xmlns="http://www.w3.org/2000/svg">
<path d="M1 1L1.65625 4.57445C2.3125 8.14891 3.625 15.2978 4.9375 15.1349C6.25 14.9719 7.5625 7.49705 8.875 6.15965C10.1875 4.82225 11.5 9.62228 12.8125 11.3435C14.125 13.0647 15.4375 11.7071 16.75 12.791C18.0625 13.8748 19.375 17.4002 20.6875 16.8379C22 16.2756 23.3125 11.6256 24.625 11.9303C25.9375 12.2349 27.25 17.4941 28.5625 21.0099C29.875 24.5256 31.1875 26.2978 32.5 23.8984C33.8125 21.499 35.125 14.928 36.4375 13.812C37.75 12.696 39.0625 17.035 40.375 18.146C41.6875 19.2571 43 17.1402 44.3125 17.7818C45.625 18.4235 46.9375 21.8237 48.25 22.6692C49.5625 23.5146 50.875 21.8053 52.1875 22.1563C53.5 22.5073 54.8125 24.9186 56.125 23.8011C57.4375 22.6836 58.75 18.0373 60.0625 17.1192C61.375 16.2011 62.6875 19.0112 63.3437 20.4163L64 21.8214" stroke="#FF3D00" stroke-width="1.5"/>
</svg>
