<svg width="47" height="47" viewBox="0 0 47 47" fill="none" xmlns="http://www.w3.org/2000/svg">
<path d="M23.2392 46.9567C36.0738 46.9567 46.4784 36.5521 46.4784 23.7175C46.4784 10.8828 36.0738 0.478271 23.2392 0.478271C10.4045 0.478271 0 10.8828 0 23.7175C0 36.5521 10.4045 46.9567 23.2392 46.9567Z" fill="#F3BA2F"/>
<path d="M17.5979 21.3993L23.2392 15.758L28.8834 21.4022L32.1659 18.1197L23.2392 9.19295L14.3153 18.1168L17.5979 21.3993ZM8.71469 23.7174L11.9972 20.4349L15.2798 23.7174L11.9972 27L8.71469 23.7174ZM17.5979 26.0356L23.2392 31.6769L28.8834 26.0327L32.1659 29.3137L23.2392 38.2419L14.3153 29.3181L14.311 29.3137L17.5979 26.0356ZM31.1986 23.7174L34.4811 20.4349L37.7637 23.7174L34.4811 27L31.1986 23.7174ZM26.5682 23.7145H26.5711V23.7174L23.2392 27.0494L19.9116 23.7233L19.9058 23.7174L19.9116 23.7131L20.4941 23.1292L20.7773 22.846L23.2392 20.3855L26.5697 23.716L26.5682 23.7145Z" fill="white"/>
</svg>
