<svg width="47" height="48" viewBox="0 0 47 48" fill="none" xmlns="http://www.w3.org/2000/svg">
<path d="M23.2392 47.4349C36.0738 47.4349 46.4784 37.0304 46.4784 24.1957C46.4784 11.3611 36.0738 0.956543 23.2392 0.956543C10.4045 0.956543 0 11.3611 0 24.1957C0 37.0304 10.4045 47.4349 23.2392 47.4349Z" fill="#0D1E30"/>
<g filter="url(#filter0_d_1_58)">
<path d="M22.8398 9.75837C23.5355 9.39962 24.3852 10.229 24.0163 10.9131C23.7999 11.4708 22.985 11.619 22.5696 11.1934C22.1296 10.7867 22.2733 9.97914 22.8398 9.75692V9.75837ZM15.3524 10.5514C15.7751 10.38 16.311 10.7606 16.2675 11.2152C16.311 11.7061 15.701 12.0692 15.2696 11.8354C14.6988 11.6175 14.7642 10.7054 15.3524 10.5514ZM30.6874 11.8484C30.0265 11.77 29.9219 10.7475 30.5567 10.5412C31.0505 10.3059 31.5037 10.7489 31.5763 11.2094C31.4717 11.6015 31.1376 11.9617 30.6874 11.8484ZM17.0561 13.6858C17.7635 13.2457 18.7715 13.9008 18.6626 14.7098C18.6262 15.5246 17.5253 15.9981 16.9036 15.4462C16.3023 15.0133 16.3938 14.0199 17.0561 13.6858ZM27.8478 14.1535C28.163 13.3546 29.4412 13.3285 29.7999 14.107C30.1558 14.7127 29.7186 15.4636 29.0868 15.6698C28.2487 15.8238 27.4542 14.932 27.8478 14.1535ZM21.9378 15.6248C21.9306 14.9364 22.5667 14.4251 23.2305 14.3772C23.6721 14.4643 24.1514 14.6488 24.3402 15.086C24.6931 15.6902 24.3794 16.5195 23.7447 16.7969C23.4542 16.9567 23.1085 16.8972 22.7919 16.8783C22.3082 16.6459 21.9001 16.1855 21.9378 15.6248ZM10.8034 16.627C11.4497 16.2348 12.3212 16.9465 12.0757 17.6379C11.9421 18.2349 11.1258 18.4774 10.6596 18.0969C10.1614 17.7396 10.2398 16.8812 10.8048 16.6256L10.8034 16.627ZM34.7136 16.6241C35.2611 16.2058 36.166 16.6866 36.0992 17.3663C36.137 17.9865 35.3541 18.4556 34.8109 18.1361C34.2125 17.8703 34.15 16.964 34.7136 16.6256V16.6241ZM25.0693 17.8601C25.9727 17.5406 27.0475 17.9226 27.5617 18.7171C28.2415 19.6859 27.8813 21.1616 26.8253 21.7178C25.7331 22.3758 24.1368 21.8195 23.7316 20.6169C23.2741 19.5421 23.9422 18.1971 25.0679 17.8601H25.0693ZM19.7635 17.9662C20.7657 17.5014 22.115 17.8906 22.5987 18.8986C23.1681 19.8805 22.728 21.2472 21.7098 21.7542C20.6902 22.325 19.2508 21.8921 18.7584 20.8391C18.205 19.8195 18.696 18.4353 19.7635 17.9662ZM14.4519 19.7512C14.5289 19.1165 15.1375 18.7026 15.7518 18.659C16.0723 18.6928 16.3717 18.8344 16.6012 19.0605C16.8308 19.2866 16.9768 19.5839 17.0155 19.9037C16.9719 20.5573 16.4592 21.1935 15.7562 21.1906C14.982 21.256 14.3038 20.4978 14.4519 19.7512ZM30.1413 18.7984C30.9358 18.3438 32.0382 19.0047 32.0033 19.9023C32.057 20.8536 30.837 21.5232 30.0469 20.9655C29.2248 20.5007 29.2887 19.1935 30.1413 18.7984ZM17.6066 22.1492C18.5333 21.8979 19.5965 22.3279 20.0511 23.1674C20.5493 24.0127 20.3459 25.1863 19.5718 25.8079C18.5769 26.7172 16.7453 26.3512 16.2166 25.1108C15.6081 23.9735 16.3474 22.4484 17.6052 22.1478L17.6066 22.1492ZM27.6677 22.1449C28.5697 21.8907 29.63 22.232 30.1151 23.041C30.7571 23.9662 30.4506 25.3475 29.4964 25.943C28.4942 26.6358 26.9459 26.2727 26.3939 25.1892C25.7258 24.0694 26.3983 22.4862 27.6677 22.1449ZM11.6327 23.1993C12.4345 22.9016 13.3234 23.7716 12.998 24.5545C12.8005 25.2662 11.7794 25.5305 11.2522 25.0047C10.6349 24.5109 10.8629 23.4143 11.6327 23.1993ZM33.3744 24.3352C33.3594 24.0154 33.4712 23.7027 33.6855 23.4649C33.8998 23.2272 34.1994 23.0837 34.5189 23.0657C35.068 23.1529 35.6025 23.5886 35.5589 24.1768C35.6097 24.9539 34.6584 25.4811 33.9844 25.1166C33.6693 24.9583 33.508 24.6402 33.3744 24.3352ZM7.6893 23.5857C8.17151 23.378 8.76847 23.789 8.65808 24.3163C8.63194 24.9132 7.73578 25.1442 7.40752 24.6445C7.11703 24.2974 7.29133 23.7643 7.6893 23.5842V23.5857ZM38.1167 23.5726C38.4565 23.3359 39.0027 23.5058 39.1363 23.8965C39.3643 24.3235 38.946 24.9074 38.458 24.8363C37.7724 24.8973 37.5517 23.8704 38.1167 23.5726ZM20.2268 26.4383C21.4963 26.1144 22.8616 27.1558 22.8703 28.4427C22.9516 29.7426 21.6067 30.8944 20.3082 30.5952C19.3031 30.4354 18.5144 29.4826 18.5478 28.4848C18.5449 27.5291 19.2769 26.6402 20.2268 26.4383ZM25.2552 26.4368C26.5435 26.0825 27.9495 27.1427 27.9292 28.4587C27.9974 29.7339 26.6946 30.8479 25.4223 30.5938C24.224 30.4427 23.3409 29.1486 23.675 28.004C23.8434 27.243 24.4912 26.6242 25.2552 26.4354V26.4368ZM15.5587 27.2284C16.4505 27.0788 17.2871 28.0563 16.9254 28.89C16.6611 29.7789 15.3481 30.0186 14.7671 29.2938C14.0873 28.5966 14.5957 27.3243 15.5587 27.2284ZM30.3068 27.2677C31.1028 26.9394 32.0788 27.6162 32.0178 28.4659C32.0498 29.3998 30.8442 30.0447 30.0672 29.4986C29.1856 29.0091 29.3468 27.5669 30.3068 27.2677ZM34.4289 31.3345C34.1181 30.7637 34.6831 30.007 35.3294 30.113C35.649 30.1072 35.8741 30.3556 36.0789 30.5647C36.121 30.9031 36.1922 31.3069 35.906 31.5669C35.5182 32.0506 34.6395 31.9126 34.4289 31.3345ZM10.8004 30.2713C11.4032 29.8777 12.2703 30.4659 12.1338 31.1573C12.0612 31.7717 11.2768 32.1217 10.7612 31.7731C10.2064 31.458 10.2267 30.5589 10.8004 30.2713ZM22.7004 31.5538C23.489 31.2125 24.4941 31.8879 24.4186 32.7419C24.4767 33.686 23.2349 34.3396 22.4636 33.7732C21.6067 33.2866 21.7505 31.8545 22.7004 31.5538ZM17.1898 32.8189C17.8608 32.4718 18.7613 33.0716 18.7003 33.8124C18.7207 34.4195 18.1193 34.9366 17.5093 34.8465C17.0053 34.8364 16.6771 34.3905 16.5144 33.9678C16.5231 33.5074 16.7163 32.9947 17.1898 32.8204V32.8189ZM28.3533 32.8305C29.0447 32.4093 30.0265 33.0135 29.9612 33.8037C29.9786 34.6316 28.8689 35.1603 28.2255 34.617C27.6038 34.1915 27.6794 33.169 28.3533 32.8305ZM30.2952 37.551C29.9873 37.0949 30.349 36.5444 30.8472 36.4399C31.2495 36.5198 31.6751 36.8175 31.5894 37.2736C31.5313 37.8938 30.6104 38.0826 30.2952 37.5524V37.551ZM14.8833 37.1545C15.0053 36.7914 15.3016 36.4326 15.7359 36.527C16.3677 36.5706 16.5551 37.5089 16.0017 37.7979C15.5049 38.1276 14.9269 37.6759 14.8833 37.1545ZM22.3198 37.5713C22.4404 37.0339 23.1448 36.7739 23.6096 37.0586C23.9175 37.1893 24.0076 37.5263 24.086 37.8139C24.0445 37.9633 24.0058 38.1134 23.9698 38.2642C23.7795 38.4849 23.5341 38.7071 23.2174 38.6999C22.6292 38.7682 22.0976 38.1131 22.3184 37.5713H22.3198Z" fill="black"/>
</g>
<path d="M22.8398 9.75837C23.5355 9.39962 24.3852 10.229 24.0163 10.9131C23.7999 11.4708 22.985 11.619 22.5696 11.1934C22.1296 10.7867 22.2733 9.97914 22.8398 9.75692V9.75837ZM15.3524 10.5514C15.7751 10.38 16.311 10.7606 16.2675 11.2152C16.311 11.7061 15.701 12.0692 15.2696 11.8354C14.6988 11.6175 14.7642 10.7054 15.3524 10.5514ZM30.6874 11.8484C30.0265 11.77 29.9219 10.7475 30.5567 10.5412C31.0505 10.3059 31.5037 10.7489 31.5763 11.2094C31.4717 11.6015 31.1376 11.9617 30.6874 11.8484ZM17.0561 13.6858C17.7635 13.2457 18.7715 13.9008 18.6626 14.7098C18.6262 15.5246 17.5253 15.9981 16.9036 15.4462C16.3023 15.0133 16.3938 14.0199 17.0561 13.6858ZM27.8478 14.1535C28.163 13.3546 29.4412 13.3285 29.7999 14.107C30.1558 14.7127 29.7186 15.4636 29.0868 15.6698C28.2487 15.8238 27.4542 14.932 27.8478 14.1535ZM21.9378 15.6248C21.9306 14.9364 22.5667 14.4251 23.2305 14.3772C23.6721 14.4643 24.1514 14.6488 24.3402 15.086C24.6931 15.6902 24.3794 16.5195 23.7447 16.7969C23.4542 16.9567 23.1085 16.8972 22.7919 16.8783C22.3082 16.6459 21.9001 16.1855 21.9378 15.6248ZM10.8034 16.627C11.4497 16.2348 12.3212 16.9465 12.0757 17.6379C11.9421 18.2349 11.1258 18.4774 10.6596 18.0969C10.1614 17.7396 10.2398 16.8812 10.8048 16.6256L10.8034 16.627ZM34.7136 16.6241C35.2611 16.2058 36.166 16.6866 36.0992 17.3663C36.137 17.9865 35.3541 18.4556 34.8109 18.1361C34.2125 17.8703 34.15 16.964 34.7136 16.6256V16.6241ZM25.0693 17.8601C25.9727 17.5406 27.0475 17.9226 27.5617 18.7171C28.2415 19.6859 27.8813 21.1616 26.8253 21.7178C25.7331 22.3758 24.1368 21.8195 23.7316 20.6169C23.2741 19.5421 23.9422 18.1971 25.0679 17.8601H25.0693ZM19.7635 17.9662C20.7657 17.5014 22.115 17.8906 22.5987 18.8986C23.1681 19.8805 22.728 21.2472 21.7098 21.7542C20.6902 22.325 19.2508 21.8921 18.7584 20.8391C18.205 19.8195 18.696 18.4353 19.7635 17.9662ZM14.4519 19.7512C14.5289 19.1165 15.1375 18.7026 15.7518 18.659C16.0723 18.6928 16.3717 18.8344 16.6012 19.0605C16.8308 19.2866 16.9768 19.5839 17.0155 19.9037C16.9719 20.5573 16.4592 21.1935 15.7562 21.1906C14.982 21.256 14.3038 20.4978 14.4519 19.7512ZM30.1413 18.7984C30.9358 18.3438 32.0382 19.0047 32.0033 19.9023C32.057 20.8536 30.837 21.5232 30.0469 20.9655C29.2248 20.5007 29.2887 19.1935 30.1413 18.7984ZM17.6066 22.1492C18.5333 21.8979 19.5965 22.3279 20.0511 23.1674C20.5493 24.0127 20.3459 25.1863 19.5718 25.8079C18.5769 26.7172 16.7453 26.3512 16.2166 25.1108C15.6081 23.9735 16.3474 22.4484 17.6052 22.1478L17.6066 22.1492ZM27.6677 22.1449C28.5697 21.8907 29.63 22.232 30.1151 23.041C30.7571 23.9662 30.4506 25.3475 29.4964 25.943C28.4942 26.6358 26.9459 26.2727 26.3939 25.1892C25.7258 24.0694 26.3983 22.4862 27.6677 22.1449ZM11.6327 23.1993C12.4345 22.9016 13.3234 23.7716 12.998 24.5545C12.8005 25.2662 11.7794 25.5305 11.2522 25.0047C10.6349 24.5109 10.8629 23.4143 11.6327 23.1993ZM33.3744 24.3352C33.3594 24.0154 33.4712 23.7027 33.6855 23.4649C33.8998 23.2272 34.1994 23.0837 34.5189 23.0657C35.068 23.1529 35.6025 23.5886 35.5589 24.1768C35.6097 24.9539 34.6584 25.4811 33.9844 25.1166C33.6693 24.9583 33.508 24.6402 33.3744 24.3352ZM7.6893 23.5857C8.17151 23.378 8.76847 23.789 8.65808 24.3163C8.63194 24.9132 7.73578 25.1442 7.40752 24.6445C7.11703 24.2974 7.29133 23.7643 7.6893 23.5842V23.5857ZM38.1167 23.5726C38.4565 23.3359 39.0027 23.5058 39.1363 23.8965C39.3643 24.3235 38.946 24.9074 38.458 24.8363C37.7724 24.8973 37.5517 23.8704 38.1167 23.5726ZM20.2268 26.4383C21.4963 26.1144 22.8616 27.1558 22.8703 28.4427C22.9516 29.7426 21.6067 30.8944 20.3082 30.5952C19.3031 30.4354 18.5144 29.4826 18.5478 28.4848C18.5449 27.5291 19.2769 26.6402 20.2268 26.4383ZM25.2552 26.4368C26.5435 26.0825 27.9495 27.1427 27.9292 28.4587C27.9974 29.7339 26.6946 30.8479 25.4223 30.5938C24.224 30.4427 23.3409 29.1486 23.675 28.004C23.8434 27.243 24.4912 26.6242 25.2552 26.4354V26.4368ZM15.5587 27.2284C16.4505 27.0788 17.2871 28.0563 16.9254 28.89C16.6611 29.7789 15.3481 30.0186 14.7671 29.2938C14.0873 28.5966 14.5957 27.3243 15.5587 27.2284ZM30.3068 27.2677C31.1028 26.9394 32.0788 27.6162 32.0178 28.4659C32.0498 29.3998 30.8442 30.0447 30.0672 29.4986C29.1856 29.0091 29.3468 27.5669 30.3068 27.2677ZM34.4289 31.3345C34.1181 30.7637 34.6831 30.007 35.3294 30.113C35.649 30.1072 35.8741 30.3556 36.0789 30.5647C36.121 30.9031 36.1922 31.3069 35.906 31.5669C35.5182 32.0506 34.6395 31.9126 34.4289 31.3345ZM10.8004 30.2713C11.4032 29.8777 12.2703 30.4659 12.1338 31.1573C12.0612 31.7717 11.2768 32.1217 10.7612 31.7731C10.2064 31.458 10.2267 30.5589 10.8004 30.2713ZM22.7004 31.5538C23.489 31.2125 24.4941 31.8879 24.4186 32.7419C24.4767 33.686 23.2349 34.3396 22.4636 33.7732C21.6067 33.2866 21.7505 31.8545 22.7004 31.5538ZM17.1898 32.8189C17.8608 32.4718 18.7613 33.0716 18.7003 33.8124C18.7207 34.4195 18.1193 34.9366 17.5093 34.8465C17.0053 34.8364 16.6771 34.3905 16.5144 33.9678C16.5231 33.5074 16.7163 32.9947 17.1898 32.8204V32.8189ZM28.3533 32.8305C29.0447 32.4093 30.0265 33.0135 29.9612 33.8037C29.9786 34.6316 28.8689 35.1603 28.2255 34.617C27.6038 34.1915 27.6794 33.169 28.3533 32.8305ZM30.2952 37.551C29.9873 37.0949 30.349 36.5444 30.8472 36.4399C31.2495 36.5198 31.6751 36.8175 31.5894 37.2736C31.5313 37.8938 30.6104 38.0826 30.2952 37.5524V37.551ZM14.8833 37.1545C15.0053 36.7914 15.3016 36.4326 15.7359 36.527C16.3677 36.5706 16.5551 37.5089 16.0017 37.7979C15.5049 38.1276 14.9269 37.6759 14.8833 37.1545ZM22.3198 37.5713C22.4404 37.0339 23.1448 36.7739 23.6096 37.0586C23.9175 37.1893 24.0076 37.5263 24.086 37.8139C24.0445 37.9633 24.0058 38.1134 23.9698 38.2642C23.7795 38.4849 23.5341 38.7071 23.2174 38.6999C22.6292 38.7682 22.0976 38.1131 22.3184 37.5713H22.3198Z" fill="white"/>
<defs>
<filter id="filter0_d_1_58" x="4.62741" y="8.35407" width="37.2083" height="34.304" filterUnits="userSpaceOnUse" color-interpolation-filters="sRGB">
<feFlood flood-opacity="0" result="BackgroundImageFix"/>
<feColorMatrix in="SourceAlpha" type="matrix" values="0 0 0 0 0 0 0 0 0 0 0 0 0 0 0 0 0 0 127 0" result="hardAlpha"/>
<feOffset dy="1.31776"/>
<feGaussianBlur stdDeviation="1.31776"/>
<feColorMatrix type="matrix" values="0 0 0 0 0 0 0 0 0 0 0 0 0 0 0 0 0 0 0.204257 0"/>
<feBlend mode="normal" in2="BackgroundImageFix" result="effect1_dropShadow_1_58"/>
<feBlend mode="normal" in="SourceGraphic" in2="effect1_dropShadow_1_58" result="shape"/>
</filter>
</defs>
</svg>
