<svg width="20" height="21" viewBox="0 0 20 21" fill="none" xmlns="http://www.w3.org/2000/svg">
<path d="M16.7034 9.0587L16.2064 9.57737V15.3138C16.2067 15.492 16.1733 15.6684 16.108 15.833C16.0428 15.9976 15.947 16.147 15.8262 16.2727L12.641 19.6028C12.4706 19.7808 12.2563 19.9057 12.022 19.9636C11.7877 20.0215 11.5426 20.0101 11.3141 19.9308C11.0856 19.8514 10.8827 19.7072 10.7281 19.5142C10.5735 19.3212 10.4733 19.087 10.4387 18.8379L9.93238 15.0424L5.74479 10.6613L2.11635 10.1319C1.87751 10.0966 1.6528 9.99239 1.46744 9.831C1.28207 9.6696 1.14339 9.4574 1.06693 9.2182C0.990475 8.979 0.979278 8.72226 1.03459 8.47678C1.08991 8.23129 1.20955 8.00678 1.38009 7.82842L4.5653 4.49823C4.68551 4.37205 4.82846 4.27205 4.98587 4.20399C5.14328 4.13593 5.31204 4.10116 5.48237 4.10171H10.9691L11.4652 3.58303C13.8863 1.0517 16.8035 0.943116 17.945 1.01389C18.2609 1.03428 18.5587 1.1746 18.7826 1.40848C19.0065 1.64236 19.1409 1.95368 19.1607 2.28392C19.2284 3.47736 19.1236 6.52542 16.7034 9.0587ZM2.27214 8.98017L5.80878 9.49594L9.85635 5.26509H5.48237C5.43327 5.26531 5.38625 5.28588 5.35163 5.32229L2.16735 8.65054C2.14367 8.67552 2.12694 8.70675 2.11893 8.74091C2.11093 8.77506 2.11196 8.81085 2.12192 8.84444C2.13135 8.88004 2.15064 8.91193 2.17737 8.93608C2.20411 8.96023 2.23708 8.97557 2.27214 8.98017ZM15.0936 10.7408L11.046 14.9726L11.5394 18.6721C11.5445 18.7077 11.5589 18.7411 11.5812 18.7686C11.6034 18.7961 11.6325 18.8166 11.6652 18.8277C11.6979 18.8389 11.733 18.8403 11.7664 18.8319C11.7999 18.8234 11.8304 18.8053 11.8546 18.7797L15.0389 15.4505C15.0737 15.4143 15.0934 15.3652 15.0936 15.3138V10.7408ZM18.0498 2.35663C18.0462 2.31083 18.0272 2.26785 17.9961 2.23536C17.965 2.20286 17.9239 2.18297 17.8801 2.17921C16.8442 2.1097 15.8061 2.27271 14.8354 2.65731C13.8648 3.04191 12.9841 3.63918 12.2524 4.40903L6.79355 10.1125L10.4572 13.943L15.2568 8.92588L15.9161 8.23657C16.6521 7.47216 17.2233 6.55203 17.5913 5.5379C17.9593 4.52378 18.1156 3.4391 18.0498 2.35663Z" fill="white" fill-opacity="0.4"/>
<path d="M16.7395 9.09324L16.7395 9.09329L16.2564 9.59746V15.3137V15.3138H16.2064C16.2067 15.492 16.1733 15.6684 16.108 15.833C16.0428 15.9976 15.947 16.147 15.8262 16.2727L16.7395 9.09324ZM16.7395 9.09324C19.1736 6.5454 19.2786 3.48047 19.2106 2.28109L19.2106 2.28093C19.1901 1.93915 19.051 1.61655 18.8187 1.37391C18.5864 1.13121 18.2769 0.98521 17.9482 0.963992L17.9481 0.963985C16.7996 0.892778 13.8647 1.00196 11.429 3.54847L10.9477 4.05171L16.7395 9.09324ZM15.0936 15.3138C15.0934 15.3652 15.0737 15.4143 15.0389 15.4505L11.8546 18.7797C11.8304 18.8053 11.7999 18.8234 11.7664 18.8319C11.733 18.8403 11.6979 18.8389 11.6652 18.8277C11.6325 18.8166 11.6034 18.7961 11.5812 18.7686C11.5589 18.7411 11.5445 18.7077 11.5394 18.6721M15.0936 15.3138V10.8131L15.0436 10.8654M15.0936 15.3138H15.0436M15.0936 15.3138L15.0436 15.3136M15.0436 10.8654V10.793L11.046 14.9726M15.0436 10.8654L15.0436 15.3136M15.0436 10.8654L11.0988 14.9898M11.046 14.9726L11.5394 18.6721M11.046 14.9726L11.0956 14.966L11.0988 14.9898M11.046 14.9726L11.0822 15.0071L11.0988 14.9898M11.5394 18.6721L11.5889 18.665L11.0988 14.9898M11.5394 18.6721L11.5889 18.6655L11.5889 18.6652C11.5928 18.692 11.6036 18.7169 11.62 18.7372C11.6365 18.7575 11.6578 18.7724 11.6814 18.7804C11.7049 18.7885 11.7301 18.7895 11.7542 18.7834C11.7782 18.7773 11.8005 18.7642 11.8183 18.7454L11.8185 18.7452L15.0028 15.416L15.0029 15.4159C15.0285 15.3892 15.0434 15.3526 15.0436 15.3138M15.0436 15.3138L15.0436 15.3136M15.0436 15.3138C15.0436 15.3138 15.0436 15.3137 15.0436 15.3136M15.8622 16.3073C15.8622 16.3073 15.8622 16.3073 15.8623 16.3072L5.48253 4.05171L5.48237 4.10171V4.05171H5.48246C5.30522 4.05115 5.12969 4.08733 4.96603 4.15809C4.80235 4.22886 4.65387 4.33278 4.5291 4.46374L1.34396 7.79386L1.34396 7.79386C1.16701 7.97892 1.04309 8.21163 0.985816 8.46579C0.928548 8.71993 0.940133 8.98573 1.0193 9.23343C1.09848 9.48113 1.24219 9.70117 1.4346 9.8687C1.62704 10.0363 1.86056 10.1446 2.10904 10.1814L2.10914 10.1814L5.72054 10.7083L9.88498 15.0651L10.3891 18.8445L10.3892 18.8448C10.425 19.1027 10.5288 19.3453 10.6891 19.5454C10.8494 19.7456 11.0601 19.8955 11.2977 19.978C11.5353 20.0605 11.7903 20.0724 12.034 20.0121C12.2777 19.9519 12.5003 19.8221 12.6771 19.6374L12.6771 19.6374L15.8622 16.3073ZM2.27935 8.93069L2.27935 8.93069L2.27863 8.93059C2.25384 8.92734 2.23025 8.91647 2.21089 8.89898C2.19152 8.88147 2.17726 8.8581 2.17025 8.83164L2.17027 8.83163L2.16986 8.83023C2.16237 8.80498 2.16159 8.77802 2.16762 8.75232C2.17363 8.72665 2.18615 8.70342 2.20357 8.68502C2.20359 8.68499 2.20361 8.68497 2.20364 8.68494L5.38776 5.35686L5.38787 5.35674C5.41332 5.32997 5.4474 5.31527 5.4825 5.31509C5.48253 5.31509 5.48256 5.31509 5.48259 5.31509L9.73932 5.31509L5.79048 9.44274L2.27935 8.93069ZM15.2207 8.89131L10.4572 13.8706L6.86275 10.1125L12.2886 4.44361L12.2887 4.44348C13.0154 3.67879 13.8901 3.08567 14.8539 2.7038C15.8175 2.32198 16.848 2.16014 17.8762 2.22907C17.9075 2.23185 17.9372 2.2461 17.9599 2.26992C17.9828 2.29379 17.9971 2.32569 17.9999 2.3601C18.0652 3.43564 17.9099 4.51332 17.5443 5.52085C17.1786 6.52851 16.6112 7.4426 15.8801 8.20189L15.88 8.20201L15.2207 8.89131Z" stroke="white" stroke-opacity="0.4" stroke-width="0.1"/>
</svg>
