<svg width="75" height="40" viewBox="0 0 75 40" fill="none" xmlns="http://www.w3.org/2000/svg">
<path d="M30.727 26V16.5455H36.59V17.7734H32.1535V20.6541H36.1699V21.8775H32.1535V26H30.727ZM38.2334 26V18.9091H39.6138V26H38.2334ZM38.9305 17.815C38.6905 17.815 38.4843 17.735 38.3119 17.5749C38.1426 17.4118 38.058 17.2179 38.058 16.9933C38.058 16.7655 38.1426 16.5716 38.3119 16.4116C38.4843 16.2485 38.6905 16.1669 38.9305 16.1669C39.1706 16.1669 39.3752 16.2485 39.5445 16.4116C39.7169 16.5716 39.803 16.7655 39.803 16.9933C39.803 17.2179 39.7169 17.4118 39.5445 17.5749C39.3752 17.735 39.1706 17.815 38.9305 17.815ZM42.8511 16.5455V26H41.4707V16.5455H42.8511ZM48.018 18.9091V20.017H44.1448V18.9091H48.018ZM45.1835 17.2102H46.5639V23.918C46.5639 24.1857 46.6039 24.3873 46.6839 24.5227C46.7639 24.6551 46.867 24.7459 46.9932 24.7951C47.1225 24.8413 47.2625 24.8643 47.4133 24.8643C47.5241 24.8643 47.621 24.8567 47.7041 24.8413C47.7872 24.8259 47.8519 24.8136 47.898 24.8043L48.1473 25.9446C48.0673 25.9754 47.9534 26.0062 47.8057 26.0369C47.658 26.0708 47.4733 26.0893 47.2517 26.0923C46.8885 26.0985 46.55 26.0339 46.2361 25.8984C45.9222 25.763 45.6683 25.5537 45.4744 25.2706C45.2805 24.9875 45.1835 24.632 45.1835 24.2042V17.2102ZM52.5249 26.1431C51.8263 26.1431 51.2246 25.9938 50.7198 25.6953C50.2182 25.3937 49.8304 24.9705 49.5565 24.4258C49.2857 23.878 49.1502 23.2363 49.1502 22.5007C49.1502 21.7744 49.2857 21.1342 49.5565 20.5803C49.8304 20.0263 50.212 19.5939 50.7014 19.283C51.1938 18.9722 51.7693 18.8168 52.4279 18.8168C52.828 18.8168 53.2158 18.8829 53.5913 19.0153C53.9668 19.1476 54.3038 19.3554 54.6023 19.6385C54.9008 19.9216 55.1363 20.2894 55.3086 20.7418C55.481 21.1912 55.5671 21.7375 55.5671 22.3807V22.87H49.9304V21.8359H54.2145C54.2145 21.4728 54.1407 21.1512 53.9929 20.8711C53.8452 20.5879 53.6375 20.3648 53.3697 20.2017C53.105 20.0386 52.7942 19.957 52.4372 19.957C52.0494 19.957 51.7108 20.0524 51.4215 20.2433C51.1353 20.431 50.9137 20.6772 50.7568 20.9819C50.6029 21.2835 50.5259 21.6113 50.5259 21.9652V22.7731C50.5259 23.247 50.609 23.6502 50.7752 23.9826C50.9445 24.315 51.1799 24.5689 51.4816 24.7443C51.7832 24.9167 52.1356 25.0028 52.5387 25.0028C52.8003 25.0028 53.0389 24.9659 53.2543 24.892C53.4697 24.8151 53.6559 24.7012 53.8129 24.5504C53.9698 24.3996 54.0899 24.2134 54.173 23.9918L55.4794 24.2273C55.3748 24.612 55.1871 24.949 54.9162 25.2383C54.6485 25.5245 54.3115 25.7476 53.9052 25.9077C53.502 26.0646 53.0419 26.1431 52.5249 26.1431ZM57.0987 26V18.9091H58.4328V20.0355H58.5067C58.6359 19.6539 58.8637 19.3538 59.1899 19.1353C59.5192 18.9137 59.8916 18.8029 60.3071 18.8029C60.3933 18.8029 60.4948 18.806 60.6118 18.8121C60.7318 18.8183 60.8257 18.826 60.8934 18.8352V20.1555C60.838 20.1402 60.7395 20.1232 60.5979 20.1048C60.4564 20.0832 60.3148 20.0724 60.1732 20.0724C59.847 20.0724 59.5562 20.1417 59.3007 20.2802C59.0484 20.4156 58.8483 20.6049 58.7006 20.848C58.5528 21.0881 58.479 21.362 58.479 21.6697V26H57.0987Z" fill="#0B0B0B" fill-opacity="0.3"/>
<path d="M20.3736 24.65C20.5321 24.65 20.6842 24.7211 20.7963 24.8477C20.9084 24.9743 20.9714 25.146 20.9714 25.325C20.9714 25.504 20.9084 25.6757 20.7963 25.8023C20.6842 25.9289 20.5321 26 20.3736 26H16.7864C16.6279 26 16.4758 25.9289 16.3637 25.8023C16.2516 25.6757 16.1886 25.504 16.1886 25.325C16.1886 25.146 16.2516 24.9743 16.3637 24.8477C16.4758 24.7211 16.6279 24.65 16.7864 24.65H20.3736ZM21.9679 20.825C22.1264 20.825 22.2785 20.8961 22.3906 21.0227C22.5027 21.1493 22.5657 21.321 22.5657 21.5C22.5657 21.679 22.5027 21.8507 22.3906 21.9773C22.2785 22.1039 22.1264 22.175 21.9679 22.175H15.1921C15.0336 22.175 14.8815 22.1039 14.7694 21.9773C14.6573 21.8507 14.5943 21.679 14.5943 21.5C14.5943 21.321 14.6573 21.1493 14.7694 21.0227C14.8815 20.8961 15.0336 20.825 15.1921 20.825H21.9679ZM23.5621 17C23.7207 17 23.8728 17.0711 23.9849 17.1977C24.097 17.3243 24.16 17.496 24.16 17.675C24.16 17.854 24.097 18.0257 23.9849 18.1523C23.8728 18.2789 23.7207 18.35 23.5621 18.35H13.5979C13.4393 18.35 13.2872 18.2789 13.1751 18.1523C13.063 18.0257 13 17.854 13 17.675C13 17.496 13.063 17.3243 13.1751 17.1977C13.2872 17.0711 13.4393 17 13.5979 17H23.5621Z" fill="#0B0B0B" fill-opacity="0.3"/>
<rect x="0.5" y="0.5" width="74" height="39" rx="19.5" stroke="#0B0B0B" stroke-opacity="0.3"/>
</svg>
